<svg
    width="30"
    height="30"
    viewBox="0 0 30 30"
    fill="none"
    xmlns="http://www.w3.org/2000/svg"
>
    <path
        d="M15.2333 0.872223C7.31459 0.872223 0.872192 7.31462 0.872192 15.2333C0.872192 23.1521 7.31459 29.5944 15.2333 29.5944C23.152 29.5944 29.5944 23.1521 29.5944 15.2333C29.5944 7.31462 23.152 0.872223 15.2333 0.872223ZM3.74441 15.2333C3.74441 13.9423 3.96845 12.7029 4.36338 11.544L6.61664 13.7972L9.48886 16.6694V19.5417L12.3611 22.4139L13.7972 23.85V26.6231C8.14035 25.9123 3.74441 21.0812 3.74441 15.2333ZM24.3239 22.2315C23.3861 21.4761 21.9644 20.9778 20.9777 20.9778V19.5417C20.9777 18.7799 20.6751 18.0493 20.1365 17.5107C19.5978 16.9721 18.8673 16.6694 18.1055 16.6694H12.3611V12.3611C13.1228 12.3611 13.8534 12.0585 14.392 11.5199C14.9307 10.9812 15.2333 10.2507 15.2333 9.48889V8.05278H16.6694C17.4312 8.05278 18.1617 7.75017 18.7004 7.21152C19.239 6.67288 19.5416 5.94232 19.5416 5.18056V4.59031C23.7466 6.29785 26.7222 10.4224 26.7222 15.2333C26.7219 17.7676 25.8781 20.2298 24.3239 22.2315Z"
        fill="white"
    />
</svg>