<svg
    width="39"
    height="30"
    viewBox="0 0 39 30"
    fill="none"
    xmlns="http://www.w3.org/2000/svg"
>
    <path
        d="M19.5 17.1843C21.1162 17.1843 22.6662 16.5423 23.809 15.3995C24.9518 14.2567 25.5938 12.7067 25.5938 11.0906C25.5938 9.47441 24.9518 7.92444 23.809 6.78164C22.6662 5.63884 21.1162 4.99683 19.5 4.99683C17.8839 4.99683 16.3339 5.63884 15.1911 6.78164C14.0483 7.92444 13.4063 9.47441 13.4063 11.0906C13.4063 12.7067 14.0483 14.2567 15.1911 15.3995C16.3339 16.5423 17.8839 17.1843 19.5 17.1843Z"
        fill="white"
    />
    <path
        d="M4.875 0C3.58207 0 2.34209 0.513614 1.42785 1.42785C0.513615 2.34209 0 3.58207 0 4.875L0 24.375C0 25.6679 0.513615 26.9079 1.42785 27.8221C2.34209 28.7364 3.58207 29.25 4.875 29.25H34.125C35.4179 29.25 36.6579 28.7364 37.5721 27.8221C38.4864 26.9079 39 25.6679 39 24.375V4.875C39 3.58207 38.4864 2.34209 37.5721 1.42785C36.6579 0.513614 35.4179 0 34.125 0H4.875ZM31.1951 26.8125C30.0909 23.7169 26.9051 19.5 19.5 19.5C12.0973 19.5 8.90906 23.7169 7.80487 26.8125H4.875C4.22853 26.8125 3.60855 26.5557 3.15143 26.0986C2.69431 25.6415 2.4375 25.0215 2.4375 24.375V4.875C2.4375 4.22854 2.69431 3.60855 3.15143 3.15143C3.60855 2.69431 4.22853 2.4375 4.875 2.4375H34.125C34.7715 2.4375 35.3915 2.69431 35.8486 3.15143C36.3057 3.60855 36.5625 4.22854 36.5625 4.875V24.375C36.5625 25.0215 36.3057 25.6415 35.8486 26.0986C35.3915 26.5557 34.7715 26.8125 34.125 26.8125H31.1951Z"
        fill="white"
    />
</svg>