<svg width="30" height="30" viewBox="0 0 33 33" fill="none" xmlns="http://www.w3.org/2000/svg">
<path d="M16.5 0.25C12.3341 0.261882 8.33192 1.87323 5.32 4.75125V1.875C5.32 1.44402 5.1488 1.0307 4.84405 0.725951C4.5393 0.421205 4.12598 0.25 3.695 0.25C3.26402 0.25 2.8507 0.421205 2.54595 0.725951C2.2412 1.0307 2.07 1.44402 2.07 1.875V9.1875C2.07 9.61848 2.2412 10.0318 2.54595 10.3365C2.8507 10.6413 3.26402 10.8125 3.695 10.8125H11.0075C11.4385 10.8125 11.8518 10.6413 12.1565 10.3365C12.4613 10.0318 12.6325 9.61848 12.6325 9.1875C12.6325 8.75652 12.4613 8.3432 12.1565 8.03845C11.8518 7.7337 11.4385 7.5625 11.0075 7.5625H7.1075C9.19689 5.37908 11.9817 3.99181 14.9831 3.63921C17.9845 3.28661 21.015 3.99071 23.5536 5.63045C26.0921 7.27019 27.98 9.74311 28.8928 12.624C29.8055 15.505 29.6861 18.6139 28.5549 21.4163C27.4238 24.2187 25.3516 26.5394 22.6948 27.9795C20.0379 29.4196 16.9623 29.8891 13.9968 29.3072C11.0313 28.7253 8.36113 27.1284 6.44546 24.7911C4.52979 22.4537 3.48828 19.522 3.5 16.5C3.5 16.069 3.32879 15.6557 3.02405 15.351C2.7193 15.0462 2.30598 14.875 1.875 14.875C1.44402 14.875 1.0307 15.0462 0.725951 15.351C0.421205 15.6557 0.25 16.069 0.25 16.5C0.25 19.7139 1.20305 22.8557 2.98862 25.528C4.77419 28.2003 7.31209 30.2831 10.2814 31.513C13.2507 32.743 16.518 33.0648 19.6702 32.4378C22.8224 31.8108 25.7179 30.2631 27.9905 27.9905C30.2631 25.7179 31.8108 22.8224 32.4378 19.6702C33.0648 16.518 32.743 13.2507 31.513 10.2814C30.2831 7.31209 28.2003 4.77419 25.528 2.98862C22.8557 1.20305 19.7139 0.25 16.5 0.25ZM16.5 10C16.069 10 15.6557 10.1712 15.351 10.476C15.0462 10.7807 14.875 11.194 14.875 11.625V16.5C14.875 16.931 15.0462 17.3443 15.351 17.649C15.6557 17.9538 16.069 18.125 16.5 18.125H19.75C20.181 18.125 20.5943 17.9538 20.899 17.649C21.2038 17.3443 21.375 16.931 21.375 16.5C21.375 16.069 21.2038 15.6557 20.899 15.351C20.5943 15.0462 20.181 14.875 19.75 14.875H18.125V11.625C18.125 11.194 17.9538 10.7807 17.649 10.476C17.3443 10.1712 16.931 10 16.5 10Z" fill="white"/>
</svg>
